<?xml version="1.0" encoding="utf-8"?>
<!-- Generator: Adobe Illustrator 24.0.1, SVG Export Plug-In . SVG Version: 6.00 Build 0)  -->
<svg version="1.1" id="Layer_1" xmlns="http://www.w3.org/2000/svg" xmlns:xlink="http://www.w3.org/1999/xlink" x="0px" y="0px"
	 viewBox="0 0 1920 1080" style="enable-background:new 0 0 1920 1080;" xml:space="preserve">
<style type="text/css">
	.st0{fill:#F0DAA4;stroke:#FFC9AA;stroke-miterlimit:10;}
	.st1{fill:#FFA855;stroke:#FFC9AA;stroke-miterlimit:10;}
	.st2{fill:#FFB47F;stroke:#FFC9AA;stroke-miterlimit:10;}
	.st3{fill:#F08D68;stroke:#FFC9AA;stroke-miterlimit:10;}
</style>
<rect x="0.5" y="-0.5" class="st0" width="1920" height="1080"/>
<path class="st1" d="M1584.5,203.21c-55.99-70.4-86.43-75.48-87.83-103.84c-2.32-46.84,77.48-99.76,146.6-113.94
	c53.19-10.91,96.58,1.84,160.97,20.75c63.23,18.57,94.84,27.86,116.2,49.96c71.2,73.69,58.41,241.46-3.27,351.33
	c-7.42,13.21-73.48,130.88-134.29,117.27c-49.25-11.03-52.99-98.77-151.39-253.25C1612.45,241.61,1602.04,225.26,1584.5,203.21z"/>
<path class="st2" d="M57.07,615.97c76.73-34.18,186.46-7.25,234.3,54.6c23.43,30.3,30.77,67.37,74.08,93.61
	c11.23,6.8,25.15,13.04,49.96,29.47c26.9,17.81,40.35,26.71,49.1,37.27c30.75,37.09,14.74,104.07-0.86,139.54
	c-36.94,84.04-124.5,111.75-143.85,117.88c-17.91,5.67-108.41,32.1-196.4-18.2c-24.29-13.88-61.57-35.2-80.97-78.01
	C9.61,919.71,62.52,861.93,23.48,804.92c-23.32-34.06-51.87-27.54-60.3-56.34C-49.41,705.54-0.13,641.46,57.07,615.97z"/>
<path class="st2" d="M1824.86,831.57c20.02,33.8,50.46,46.26,82.44,27.34c20.45-12.1,14.25-30.04,45.77-61.66
	c23.08-23.15,32.43-19.58,44.25-38.04c12.69-19.82,18.64-50.08,6.95-77.65c-13.35-31.51-38.62-66.56-74.69-52.19
	c-28.46,11.34-26.55,34.6-107.58,50.48c-61.51,12.06-129.63,41.59-94.59,84.41C1762.17,806.72,1801.78,792.6,1824.86,831.57z"/>
<path class="st3" d="M113.53,299.2c35.62,24.84,60.58,42.24,69.51,77.62c9.92,39.27-4.94,80.72-23.78,100.71
	C122.1,516.97,57.8,485.2,21.49,436c-5.75-7.79-47.76-66.1-37.58-116.97c7.45-37.22,38.2-47.32,44.22-49.3
	C57.46,260.1,84.26,278.78,113.53,299.2z"/>
</svg>
